#tb 0: 1/25
#media_type 0: video
#codec_id 0: rawvideo
#dimensions 0: 352x288
#sar 0: 0/1
0,          0,          0,        1,   152064, 0x5bb2722a
0,          1,          1,        1,   152064, 0x66a64e00
0,          2,          2,        1,   152064, 0x1ea6dfa5
0,          3,          3,        1,   152064, 0x20b968e6
0,          4,          4,        1,   152064, 0x523b9f07
0,          5,          5,        1,   152064, 0x6b249275
0,          6,          6,        1,   152064, 0x7aef6603
0,          7,          7,        1,   152064, 0x43c67447
0,          8,          8,        1,   152064, 0xb28d68ca
0,          9,          9,        1,   152064, 0x6fe9221c
0,         10,         10,        1,   152064, 0x5c6c2ec4
0,         11,         11,        1,   152064, 0xd245e6e5
0,         12,         12,        1,   152064, 0x533d9683
0,         13,         13,        1,   152064, 0xa9aa8b53
0,         14,         14,        1,   152064, 0x0e8676ea
0,         15,         15,        1,   152064, 0x934bf7f0
0,         16,         16,        1,   152064, 0x748e3767
0,         17,         17,        1,   152064, 0xca162342
0,         18,         18,        1,   152064, 0xa298552a
0,         19,         19,        1,   152064, 0xf3cac682
0,         20,         20,        1,   152064, 0x96fadfb3
0,         21,         21,        1,   152064, 0x09a10f64
0,         22,         22,        1,   152064, 0xf7050803
0,         23,         23,        1,   152064, 0x14bb51fe
0,         24,         24,        1,   152064, 0xdbafe352
0,         25,         25,        1,   152064, 0x139d82c4
0,         26,         26,        1,   152064, 0x6b298055
0,         27,         27,        1,   152064, 0x1d90c0cc
0,         28,         28,        1,   152064, 0x9b238d6e
0,         29,         29,        1,   152064, 0xc8f04d7b
0,         30,         30,        1,   152064, 0xd2f25331
0,         31,         31,        1,   152064, 0xb4faadd3
0,         32,         32,        1,   152064, 0x925be505
0,         33,         33,        1,   152064, 0x9a7c637e
0,         34,         34,        1,   152064, 0x91442e2c
0,         35,         35,        1,   152064, 0xbcda7dbf
0,         36,         36,        1,   152064, 0x46062095
0,         37,         37,        1,   152064, 0xd793eba9
0,         38,         38,        1,   152064, 0x798141c0
0,         39,         39,        1,   152064, 0x2c7e3898
0,         40,         40,        1,   152064, 0xcee34211
0,         41,         41,        1,   152064, 0x9abe85d4
0,         42,         42,        1,   152064, 0x0038a8d4
0,         43,         43,        1,   152064, 0x189609f7
0,         44,         44,        1,   152064, 0x67d3ecce
0,         45,         45,        1,   152064, 0xb4b7674c
0,         46,         46,        1,   152064, 0x530c3c48
0,         47,         47,        1,   152064, 0xb8bfadf1
0,         48,         48,        1,   152064, 0xd3519cdc
0,         49,         49,        1,   152064, 0x1053c3c3
